
<svg height="620pt" viewBox="0.00 0.00 2492.15 620.00" width="2492pt" xmlns="http://www.w3.org/2000/svg" xmlns:xlink="http://www.w3.org/1999/xlink">
<g class="graph" id="graph0" transform="scale(1 1) rotate(0) translate(4 616)">
<title>G</title>
<polygon fill="#ffffff" points="-4,4 -4,-616 2488.1484,-616 2488.1484,4 -4,4" stroke="transparent"/>
<!-- 4925401128 -->
<g class="node" id="node1">
<title>4925401128</title>
<polygon fill="none" points="488.6274,-567.5 488.6274,-611.5 771.8521,-611.5 771.8521,-567.5 488.6274,-567.5" stroke="#000000"/>
<text fill="#000000" font-family="Times,serif" font-size="14.00" text-anchor="middle" x="564.0811" y="-585.3">input_static: InputLayer</text>
<polyline fill="none" points="639.5347,-567.5 639.5347,-611.5 " stroke="#000000"/>
<text fill="#000000" font-family="Times,serif" font-size="14.00" text-anchor="middle" x="667.3691" y="-596.3">input:</text>
<polyline fill="none" points="639.5347,-589.5 695.2036,-589.5 " stroke="#000000"/>
<text fill="#000000" font-family="Times,serif" font-size="14.00" text-anchor="middle" x="667.3691" y="-574.3">output:</text>
<polyline fill="none" points="695.2036,-567.5 695.2036,-611.5 " stroke="#000000"/>
<text fill="#000000" font-family="Times,serif" font-size="14.00" text-anchor="middle" x="733.5278" y="-596.3">(None, 37)</text>
<polyline fill="none" points="695.2036,-589.5 771.8521,-589.5 " stroke="#000000"/>
<text fill="#000000" font-family="Times,serif" font-size="14.00" text-anchor="middle" x="733.5278" y="-574.3">(None, 37)</text>
</g>
<!-- 4925700584 -->
<g class="node" id="node3">
<title>4925700584</title>
<polygon fill="none" points="439.248,-486.5 439.248,-530.5 821.2314,-530.5 821.2314,-486.5 439.248,-486.5" stroke="#000000"/>
<text fill="#000000" font-family="Times,serif" font-size="14.00" text-anchor="middle" x="550.0811" y="-504.3">embedding_layer_static: Embedding</text>
<polyline fill="none" points="660.9141,-486.5 660.9141,-530.5 " stroke="#000000"/>
<text fill="#000000" font-family="Times,serif" font-size="14.00" text-anchor="middle" x="688.7485" y="-515.3">input:</text>
<polyline fill="none" points="660.9141,-508.5 716.583,-508.5 " stroke="#000000"/>
<text fill="#000000" font-family="Times,serif" font-size="14.00" text-anchor="middle" x="688.7485" y="-493.3">output:</text>
<polyline fill="none" points="716.583,-486.5 716.583,-530.5 " stroke="#000000"/>
<text fill="#000000" font-family="Times,serif" font-size="14.00" text-anchor="middle" x="768.9072" y="-515.3">(None, 37)</text>
<polyline fill="none" points="716.583,-508.5 821.2314,-508.5 " stroke="#000000"/>
<text fill="#000000" font-family="Times,serif" font-size="14.00" text-anchor="middle" x="768.9072" y="-493.3">(None, 37, 100)</text>
</g>
<!-- 4925401128&#45;&gt;4925700584 -->
<g class="edge" id="edge1">
<title>4925401128-&gt;4925700584</title>
<path d="M630.2397,-567.3664C630.2397,-559.1516 630.2397,-549.6579 630.2397,-540.7252" fill="none" stroke="#000000"/>
<polygon fill="#000000" points="633.7398,-540.6068 630.2397,-530.6068 626.7398,-540.6069 633.7398,-540.6068" stroke="#000000"/>
</g>
<!-- 4923549904 -->
<g class="node" id="node2">
<title>4923549904</title>
<polygon fill="none" points="1730.2964,-567.5 1730.2964,-611.5 2032.1831,-611.5 2032.1831,-567.5 1730.2964,-567.5" stroke="#000000"/>
<text fill="#000000" font-family="Times,serif" font-size="14.00" text-anchor="middle" x="1815.0811" y="-585.3">input_dynamic: InputLayer</text>
<polyline fill="none" points="1899.8657,-567.5 1899.8657,-611.5 " stroke="#000000"/>
<text fill="#000000" font-family="Times,serif" font-size="14.00" text-anchor="middle" x="1927.7002" y="-596.3">input:</text>
<polyline fill="none" points="1899.8657,-589.5 1955.5347,-589.5 " stroke="#000000"/>
<text fill="#000000" font-family="Times,serif" font-size="14.00" text-anchor="middle" x="1927.7002" y="-574.3">output:</text>
<polyline fill="none" points="1955.5347,-567.5 1955.5347,-611.5 " stroke="#000000"/>
<text fill="#000000" font-family="Times,serif" font-size="14.00" text-anchor="middle" x="1993.8589" y="-596.3">(None, 37)</text>
<polyline fill="none" points="1955.5347,-589.5 2032.1831,-589.5 " stroke="#000000"/>
<text fill="#000000" font-family="Times,serif" font-size="14.00" text-anchor="middle" x="1993.8589" y="-574.3">(None, 37)</text>
</g>
<!-- 4922809760 -->
<g class="node" id="node4">
<title>4922809760</title>
<polygon fill="none" points="1680.917,-486.5 1680.917,-530.5 2081.5625,-530.5 2081.5625,-486.5 1680.917,-486.5" stroke="#000000"/>
<text fill="#000000" font-family="Times,serif" font-size="14.00" text-anchor="middle" x="1801.0811" y="-504.3">embedding_layer_dynamic: Embedding</text>
<polyline fill="none" points="1921.2451,-486.5 1921.2451,-530.5 " stroke="#000000"/>
<text fill="#000000" font-family="Times,serif" font-size="14.00" text-anchor="middle" x="1949.0796" y="-515.3">input:</text>
<polyline fill="none" points="1921.2451,-508.5 1976.9141,-508.5 " stroke="#000000"/>
<text fill="#000000" font-family="Times,serif" font-size="14.00" text-anchor="middle" x="1949.0796" y="-493.3">output:</text>
<polyline fill="none" points="1976.9141,-486.5 1976.9141,-530.5 " stroke="#000000"/>
<text fill="#000000" font-family="Times,serif" font-size="14.00" text-anchor="middle" x="2029.2383" y="-515.3">(None, 37)</text>
<polyline fill="none" points="1976.9141,-508.5 2081.5625,-508.5 " stroke="#000000"/>
<text fill="#000000" font-family="Times,serif" font-size="14.00" text-anchor="middle" x="2029.2383" y="-493.3">(None, 37, 100)</text>
</g>
<!-- 4923549904&#45;&gt;4922809760 -->
<g class="edge" id="edge2">
<title>4923549904-&gt;4922809760</title>
<path d="M1881.2397,-567.3664C1881.2397,-559.1516 1881.2397,-549.6579 1881.2397,-540.7252" fill="none" stroke="#000000"/>
<polygon fill="#000000" points="1884.7398,-540.6068 1881.2397,-530.6068 1877.7398,-540.6069 1884.7398,-540.6068" stroke="#000000"/>
</g>
<!-- 4925758264 -->
<g class="node" id="node5">
<title>4925758264</title>
<polygon fill="none" points="77.8896,-405.5 77.8896,-449.5 408.5898,-449.5 408.5898,-405.5 77.8896,-405.5" stroke="#000000"/>
<text fill="#000000" font-family="Times,serif" font-size="14.00" text-anchor="middle" x="163.0811" y="-423.3">Conv_dynamic_3: Conv1D</text>
<polyline fill="none" points="248.2725,-405.5 248.2725,-449.5 " stroke="#000000"/>
<text fill="#000000" font-family="Times,serif" font-size="14.00" text-anchor="middle" x="276.1069" y="-434.3">input:</text>
<polyline fill="none" points="248.2725,-427.5 303.9414,-427.5 " stroke="#000000"/>
<text fill="#000000" font-family="Times,serif" font-size="14.00" text-anchor="middle" x="276.1069" y="-412.3">output:</text>
<polyline fill="none" points="303.9414,-405.5 303.9414,-449.5 " stroke="#000000"/>
<text fill="#000000" font-family="Times,serif" font-size="14.00" text-anchor="middle" x="356.2656" y="-434.3">(None, 37, 100)</text>
<polyline fill="none" points="303.9414,-427.5 408.5898,-427.5 " stroke="#000000"/>
<text fill="#000000" font-family="Times,serif" font-size="14.00" text-anchor="middle" x="356.2656" y="-412.3">(None, 35, 100)</text>
</g>
<!-- 4925700584&#45;&gt;4925758264 -->
<g class="edge" id="edge3">
<title>4925700584-&gt;4925758264</title>
<path d="M525.0015,-486.4734C473.4846,-475.6908 411.3449,-462.6848 358.5442,-451.6335" fill="none" stroke="#000000"/>
<polygon fill="#000000" points="358.962,-448.1452 348.4571,-449.5222 357.5279,-454.9967 358.962,-448.1452" stroke="#000000"/>
</g>
<!-- 4926086336 -->
<g class="node" id="node6">
<title>4926086336</title>
<polygon fill="none" points="464.8896,-405.5 464.8896,-449.5 795.5898,-449.5 795.5898,-405.5 464.8896,-405.5" stroke="#000000"/>
<text fill="#000000" font-family="Times,serif" font-size="14.00" text-anchor="middle" x="550.0811" y="-423.3">Conv_dynamic_4: Conv1D</text>
<polyline fill="none" points="635.2725,-405.5 635.2725,-449.5 " stroke="#000000"/>
<text fill="#000000" font-family="Times,serif" font-size="14.00" text-anchor="middle" x="663.1069" y="-434.3">input:</text>
<polyline fill="none" points="635.2725,-427.5 690.9414,-427.5 " stroke="#000000"/>
<text fill="#000000" font-family="Times,serif" font-size="14.00" text-anchor="middle" x="663.1069" y="-412.3">output:</text>
<polyline fill="none" points="690.9414,-405.5 690.9414,-449.5 " stroke="#000000"/>
<text fill="#000000" font-family="Times,serif" font-size="14.00" text-anchor="middle" x="743.2656" y="-434.3">(None, 37, 100)</text>
<polyline fill="none" points="690.9414,-427.5 795.5898,-427.5 " stroke="#000000"/>
<text fill="#000000" font-family="Times,serif" font-size="14.00" text-anchor="middle" x="743.2656" y="-412.3">(None, 34, 100)</text>
</g>
<!-- 4925700584&#45;&gt;4926086336 -->
<g class="edge" id="edge4">
<title>4925700584-&gt;4926086336</title>
<path d="M630.2397,-486.3664C630.2397,-478.1516 630.2397,-468.6579 630.2397,-459.7252" fill="none" stroke="#000000"/>
<polygon fill="#000000" points="633.7398,-459.6068 630.2397,-449.6068 626.7398,-459.6069 633.7398,-459.6068" stroke="#000000"/>
</g>
<!-- 4926357008 -->
<g class="node" id="node7">
<title>4926357008</title>
<polygon fill="none" points="851.8896,-405.5 851.8896,-449.5 1182.5898,-449.5 1182.5898,-405.5 851.8896,-405.5" stroke="#000000"/>
<text fill="#000000" font-family="Times,serif" font-size="14.00" text-anchor="middle" x="937.0811" y="-423.3">Conv_dynamic_5: Conv1D</text>
<polyline fill="none" points="1022.2725,-405.5 1022.2725,-449.5 " stroke="#000000"/>
<text fill="#000000" font-family="Times,serif" font-size="14.00" text-anchor="middle" x="1050.1069" y="-434.3">input:</text>
<polyline fill="none" points="1022.2725,-427.5 1077.9414,-427.5 " stroke="#000000"/>
<text fill="#000000" font-family="Times,serif" font-size="14.00" text-anchor="middle" x="1050.1069" y="-412.3">output:</text>
<polyline fill="none" points="1077.9414,-405.5 1077.9414,-449.5 " stroke="#000000"/>
<text fill="#000000" font-family="Times,serif" font-size="14.00" text-anchor="middle" x="1130.2656" y="-434.3">(None, 37, 100)</text>
<polyline fill="none" points="1077.9414,-427.5 1182.5898,-427.5 " stroke="#000000"/>
<text fill="#000000" font-family="Times,serif" font-size="14.00" text-anchor="middle" x="1130.2656" y="-412.3">(None, 33, 100)</text>
</g>
<!-- 4925700584&#45;&gt;4926357008 -->
<g class="edge" id="edge5">
<title>4925700584-&gt;4926357008</title>
<path d="M735.478,-486.4734C786.9949,-475.6908 849.1346,-462.6848 901.9353,-451.6335" fill="none" stroke="#000000"/>
<polygon fill="#000000" points="902.9516,-454.9967 912.0224,-449.5222 901.5175,-448.1452 902.9516,-454.9967" stroke="#000000"/>
</g>
<!-- 4918227520 -->
<g class="node" id="node8">
<title>4918227520</title>
<polygon fill="none" points="1356.2207,-405.5 1356.2207,-449.5 1668.2588,-449.5 1668.2588,-405.5 1356.2207,-405.5" stroke="#000000"/>
<text fill="#000000" font-family="Times,serif" font-size="14.00" text-anchor="middle" x="1432.0811" y="-423.3">Conv_static_3: Conv1D</text>
<polyline fill="none" points="1507.9414,-405.5 1507.9414,-449.5 " stroke="#000000"/>
<text fill="#000000" font-family="Times,serif" font-size="14.00" text-anchor="middle" x="1535.7759" y="-434.3">input:</text>
<polyline fill="none" points="1507.9414,-427.5 1563.6104,-427.5 " stroke="#000000"/>
<text fill="#000000" font-family="Times,serif" font-size="14.00" text-anchor="middle" x="1535.7759" y="-412.3">output:</text>
<polyline fill="none" points="1563.6104,-405.5 1563.6104,-449.5 " stroke="#000000"/>
<text fill="#000000" font-family="Times,serif" font-size="14.00" text-anchor="middle" x="1615.9346" y="-434.3">(None, 37, 100)</text>
<polyline fill="none" points="1563.6104,-427.5 1668.2588,-427.5 " stroke="#000000"/>
<text fill="#000000" font-family="Times,serif" font-size="14.00" text-anchor="middle" x="1615.9346" y="-412.3">(None, 35, 100)</text>
</g>
<!-- 4922809760&#45;&gt;4918227520 -->
<g class="edge" id="edge6">
<title>4922809760-&gt;4918227520</title>
<path d="M1780.8963,-486.4734C1731.8777,-475.7132 1672.7724,-462.7389 1622.4953,-451.7024" fill="none" stroke="#000000"/>
<polygon fill="#000000" points="1623.0811,-448.2478 1612.5632,-449.5222 1621.5802,-455.085 1623.0811,-448.2478" stroke="#000000"/>
</g>
<!-- 4923548784 -->
<g class="node" id="node9">
<title>4923548784</title>
<polygon fill="none" points="1725.2207,-405.5 1725.2207,-449.5 2037.2588,-449.5 2037.2588,-405.5 1725.2207,-405.5" stroke="#000000"/>
<text fill="#000000" font-family="Times,serif" font-size="14.00" text-anchor="middle" x="1801.0811" y="-423.3">Conv_static_4: Conv1D</text>
<polyline fill="none" points="1876.9414,-405.5 1876.9414,-449.5 " stroke="#000000"/>
<text fill="#000000" font-family="Times,serif" font-size="14.00" text-anchor="middle" x="1904.7759" y="-434.3">input:</text>
<polyline fill="none" points="1876.9414,-427.5 1932.6104,-427.5 " stroke="#000000"/>
<text fill="#000000" font-family="Times,serif" font-size="14.00" text-anchor="middle" x="1904.7759" y="-412.3">output:</text>
<polyline fill="none" points="1932.6104,-405.5 1932.6104,-449.5 " stroke="#000000"/>
<text fill="#000000" font-family="Times,serif" font-size="14.00" text-anchor="middle" x="1984.9346" y="-434.3">(None, 37, 100)</text>
<polyline fill="none" points="1932.6104,-427.5 2037.2588,-427.5 " stroke="#000000"/>
<text fill="#000000" font-family="Times,serif" font-size="14.00" text-anchor="middle" x="1984.9346" y="-412.3">(None, 34, 100)</text>
</g>
<!-- 4922809760&#45;&gt;4923548784 -->
<g class="edge" id="edge7">
<title>4922809760-&gt;4923548784</title>
<path d="M1881.2397,-486.3664C1881.2397,-478.1516 1881.2397,-468.6579 1881.2397,-459.7252" fill="none" stroke="#000000"/>
<polygon fill="#000000" points="1884.7398,-459.6068 1881.2397,-449.6068 1877.7398,-459.6069 1884.7398,-459.6068" stroke="#000000"/>
</g>
<!-- 4923451264 -->
<g class="node" id="node10">
<title>4923451264</title>
<polygon fill="none" points="2094.2207,-405.5 2094.2207,-449.5 2406.2588,-449.5 2406.2588,-405.5 2094.2207,-405.5" stroke="#000000"/>
<text fill="#000000" font-family="Times,serif" font-size="14.00" text-anchor="middle" x="2170.0811" y="-423.3">Conv_static_5: Conv1D</text>
<polyline fill="none" points="2245.9414,-405.5 2245.9414,-449.5 " stroke="#000000"/>
<text fill="#000000" font-family="Times,serif" font-size="14.00" text-anchor="middle" x="2273.7759" y="-434.3">input:</text>
<polyline fill="none" points="2245.9414,-427.5 2301.6104,-427.5 " stroke="#000000"/>
<text fill="#000000" font-family="Times,serif" font-size="14.00" text-anchor="middle" x="2273.7759" y="-412.3">output:</text>
<polyline fill="none" points="2301.6104,-405.5 2301.6104,-449.5 " stroke="#000000"/>
<text fill="#000000" font-family="Times,serif" font-size="14.00" text-anchor="middle" x="2353.9346" y="-434.3">(None, 37, 100)</text>
<polyline fill="none" points="2301.6104,-427.5 2406.2588,-427.5 " stroke="#000000"/>
<text fill="#000000" font-family="Times,serif" font-size="14.00" text-anchor="middle" x="2353.9346" y="-412.3">(None, 33, 100)</text>
</g>
<!-- 4922809760&#45;&gt;4923451264 -->
<g class="edge" id="edge8">
<title>4922809760-&gt;4923451264</title>
<path d="M1981.5832,-486.4734C2030.6018,-475.7132 2089.7071,-462.7389 2139.9842,-451.7024" fill="none" stroke="#000000"/>
<polygon fill="#000000" points="2140.8993,-455.085 2149.9163,-449.5222 2139.3984,-448.2478 2140.8993,-455.085" stroke="#000000"/>
</g>
<!-- 4926003128 -->
<g class="node" id="node11">
<title>4926003128</title>
<polygon fill="none" points="0,-324.5 0,-368.5 408.4795,-368.5 408.4795,-324.5 0,-324.5" stroke="#000000"/>
<text fill="#000000" font-family="Times,serif" font-size="14.00" text-anchor="middle" x="124.0811" y="-342.3">MaxPooling_dynamic_3: MaxPooling1D</text>
<polyline fill="none" points="248.1621,-324.5 248.1621,-368.5 " stroke="#000000"/>
<text fill="#000000" font-family="Times,serif" font-size="14.00" text-anchor="middle" x="275.9966" y="-353.3">input:</text>
<polyline fill="none" points="248.1621,-346.5 303.8311,-346.5 " stroke="#000000"/>
<text fill="#000000" font-family="Times,serif" font-size="14.00" text-anchor="middle" x="275.9966" y="-331.3">output:</text>
<polyline fill="none" points="303.8311,-324.5 303.8311,-368.5 " stroke="#000000"/>
<text fill="#000000" font-family="Times,serif" font-size="14.00" text-anchor="middle" x="356.1553" y="-353.3">(None, 35, 100)</text>
<polyline fill="none" points="303.8311,-346.5 408.4795,-346.5 " stroke="#000000"/>
<text fill="#000000" font-family="Times,serif" font-size="14.00" text-anchor="middle" x="356.1553" y="-331.3">(None, 17, 100)</text>
</g>
<!-- 4925758264&#45;&gt;4926003128 -->
<g class="edge" id="edge9">
<title>4925758264-&gt;4926003128</title>
<path d="M232.5828,-405.3664C228.4986,-396.8838 223.7577,-387.0374 219.3357,-377.8532" fill="none" stroke="#000000"/>
<polygon fill="#000000" points="222.3755,-376.0985 214.8838,-368.6068 216.0685,-379.1352 222.3755,-376.0985" stroke="#000000"/>
</g>
<!-- 4926590480 -->
<g class="node" id="node12">
<title>4926590480</title>
<polygon fill="none" points="426,-324.5 426,-368.5 834.4795,-368.5 834.4795,-324.5 426,-324.5" stroke="#000000"/>
<text fill="#000000" font-family="Times,serif" font-size="14.00" text-anchor="middle" x="550.0811" y="-342.3">MaxPooling_dynamic_4: MaxPooling1D</text>
<polyline fill="none" points="674.1621,-324.5 674.1621,-368.5 " stroke="#000000"/>
<text fill="#000000" font-family="Times,serif" font-size="14.00" text-anchor="middle" x="701.9966" y="-353.3">input:</text>
<polyline fill="none" points="674.1621,-346.5 729.8311,-346.5 " stroke="#000000"/>
<text fill="#000000" font-family="Times,serif" font-size="14.00" text-anchor="middle" x="701.9966" y="-331.3">output:</text>
<polyline fill="none" points="729.8311,-324.5 729.8311,-368.5 " stroke="#000000"/>
<text fill="#000000" font-family="Times,serif" font-size="14.00" text-anchor="middle" x="782.1553" y="-353.3">(None, 34, 100)</text>
<polyline fill="none" points="729.8311,-346.5 834.4795,-346.5 " stroke="#000000"/>
<text fill="#000000" font-family="Times,serif" font-size="14.00" text-anchor="middle" x="782.1553" y="-331.3">(None, 17, 100)</text>
</g>
<!-- 4926086336&#45;&gt;4926590480 -->
<g class="edge" id="edge10">
<title>4926086336-&gt;4926590480</title>
<path d="M630.2397,-405.3664C630.2397,-397.1516 630.2397,-387.6579 630.2397,-378.7252" fill="none" stroke="#000000"/>
<polygon fill="#000000" points="633.7398,-378.6068 630.2397,-368.6068 626.7398,-378.6069 633.7398,-378.6068" stroke="#000000"/>
</g>
<!-- 4927723336 -->
<g class="node" id="node13">
<title>4927723336</title>
<polygon fill="none" points="852,-324.5 852,-368.5 1260.4795,-368.5 1260.4795,-324.5 852,-324.5" stroke="#000000"/>
<text fill="#000000" font-family="Times,serif" font-size="14.00" text-anchor="middle" x="976.0811" y="-342.3">MaxPooling_dynamic_5: MaxPooling1D</text>
<polyline fill="none" points="1100.1621,-324.5 1100.1621,-368.5 " stroke="#000000"/>
<text fill="#000000" font-family="Times,serif" font-size="14.00" text-anchor="middle" x="1127.9966" y="-353.3">input:</text>
<polyline fill="none" points="1100.1621,-346.5 1155.8311,-346.5 " stroke="#000000"/>
<text fill="#000000" font-family="Times,serif" font-size="14.00" text-anchor="middle" x="1127.9966" y="-331.3">output:</text>
<polyline fill="none" points="1155.8311,-324.5 1155.8311,-368.5 " stroke="#000000"/>
<text fill="#000000" font-family="Times,serif" font-size="14.00" text-anchor="middle" x="1208.1553" y="-353.3">(None, 33, 100)</text>
<polyline fill="none" points="1155.8311,-346.5 1260.4795,-346.5 " stroke="#000000"/>
<text fill="#000000" font-family="Times,serif" font-size="14.00" text-anchor="middle" x="1208.1553" y="-331.3">(None, 16, 100)</text>
</g>
<!-- 4926357008&#45;&gt;4927723336 -->
<g class="edge" id="edge11">
<title>4926357008-&gt;4927723336</title>
<path d="M1027.8967,-405.3664C1031.9809,-396.8838 1036.7217,-387.0374 1041.1438,-377.8532" fill="none" stroke="#000000"/>
<polygon fill="#000000" points="1044.411,-379.1352 1045.5957,-368.6068 1038.104,-376.0985 1044.411,-379.1352" stroke="#000000"/>
</g>
<!-- 4923549232 -->
<g class="node" id="node14">
<title>4923549232</title>
<polygon fill="none" points="1278.3311,-324.5 1278.3311,-368.5 1668.1484,-368.5 1668.1484,-324.5 1278.3311,-324.5" stroke="#000000"/>
<text fill="#000000" font-family="Times,serif" font-size="14.00" text-anchor="middle" x="1393.0811" y="-342.3">MaxPooling_static_3: MaxPooling1D</text>
<polyline fill="none" points="1507.8311,-324.5 1507.8311,-368.5 " stroke="#000000"/>
<text fill="#000000" font-family="Times,serif" font-size="14.00" text-anchor="middle" x="1535.6655" y="-353.3">input:</text>
<polyline fill="none" points="1507.8311,-346.5 1563.5,-346.5 " stroke="#000000"/>
<text fill="#000000" font-family="Times,serif" font-size="14.00" text-anchor="middle" x="1535.6655" y="-331.3">output:</text>
<polyline fill="none" points="1563.5,-324.5 1563.5,-368.5 " stroke="#000000"/>
<text fill="#000000" font-family="Times,serif" font-size="14.00" text-anchor="middle" x="1615.8242" y="-353.3">(None, 35, 100)</text>
<polyline fill="none" points="1563.5,-346.5 1668.1484,-346.5 " stroke="#000000"/>
<text fill="#000000" font-family="Times,serif" font-size="14.00" text-anchor="middle" x="1615.8242" y="-331.3">(None, 17, 100)</text>
</g>
<!-- 4918227520&#45;&gt;4923549232 -->
<g class="edge" id="edge12">
<title>4918227520-&gt;4923549232</title>
<path d="M1501.5828,-405.3664C1497.4986,-396.8838 1492.7577,-387.0374 1488.3357,-377.8532" fill="none" stroke="#000000"/>
<polygon fill="#000000" points="1491.3755,-376.0985 1483.8838,-368.6068 1485.0685,-379.1352 1491.3755,-376.0985" stroke="#000000"/>
</g>
<!-- 4923621272 -->
<g class="node" id="node15">
<title>4923621272</title>
<polygon fill="none" points="1686.3311,-324.5 1686.3311,-368.5 2076.1484,-368.5 2076.1484,-324.5 1686.3311,-324.5" stroke="#000000"/>
<text fill="#000000" font-family="Times,serif" font-size="14.00" text-anchor="middle" x="1801.0811" y="-342.3">MaxPooling_static_4: MaxPooling1D</text>
<polyline fill="none" points="1915.8311,-324.5 1915.8311,-368.5 " stroke="#000000"/>
<text fill="#000000" font-family="Times,serif" font-size="14.00" text-anchor="middle" x="1943.6655" y="-353.3">input:</text>
<polyline fill="none" points="1915.8311,-346.5 1971.5,-346.5 " stroke="#000000"/>
<text fill="#000000" font-family="Times,serif" font-size="14.00" text-anchor="middle" x="1943.6655" y="-331.3">output:</text>
<polyline fill="none" points="1971.5,-324.5 1971.5,-368.5 " stroke="#000000"/>
<text fill="#000000" font-family="Times,serif" font-size="14.00" text-anchor="middle" x="2023.8242" y="-353.3">(None, 34, 100)</text>
<polyline fill="none" points="1971.5,-346.5 2076.1484,-346.5 " stroke="#000000"/>
<text fill="#000000" font-family="Times,serif" font-size="14.00" text-anchor="middle" x="2023.8242" y="-331.3">(None, 17, 100)</text>
</g>
<!-- 4923548784&#45;&gt;4923621272 -->
<g class="edge" id="edge13">
<title>4923548784-&gt;4923621272</title>
<path d="M1881.2397,-405.3664C1881.2397,-397.1516 1881.2397,-387.6579 1881.2397,-378.7252" fill="none" stroke="#000000"/>
<polygon fill="#000000" points="1884.7398,-378.6068 1881.2397,-368.6068 1877.7398,-378.6069 1884.7398,-378.6068" stroke="#000000"/>
</g>
<!-- 4925216920 -->
<g class="node" id="node16">
<title>4925216920</title>
<polygon fill="none" points="2094.3311,-324.5 2094.3311,-368.5 2484.1484,-368.5 2484.1484,-324.5 2094.3311,-324.5" stroke="#000000"/>
<text fill="#000000" font-family="Times,serif" font-size="14.00" text-anchor="middle" x="2209.0811" y="-342.3">MaxPooling_static_5: MaxPooling1D</text>
<polyline fill="none" points="2323.8311,-324.5 2323.8311,-368.5 " stroke="#000000"/>
<text fill="#000000" font-family="Times,serif" font-size="14.00" text-anchor="middle" x="2351.6655" y="-353.3">input:</text>
<polyline fill="none" points="2323.8311,-346.5 2379.5,-346.5 " stroke="#000000"/>
<text fill="#000000" font-family="Times,serif" font-size="14.00" text-anchor="middle" x="2351.6655" y="-331.3">output:</text>
<polyline fill="none" points="2379.5,-324.5 2379.5,-368.5 " stroke="#000000"/>
<text fill="#000000" font-family="Times,serif" font-size="14.00" text-anchor="middle" x="2431.8242" y="-353.3">(None, 33, 100)</text>
<polyline fill="none" points="2379.5,-346.5 2484.1484,-346.5 " stroke="#000000"/>
<text fill="#000000" font-family="Times,serif" font-size="14.00" text-anchor="middle" x="2431.8242" y="-331.3">(None, 16, 100)</text>
</g>
<!-- 4923451264&#45;&gt;4925216920 -->
<g class="edge" id="edge14">
<title>4923451264-&gt;4925216920</title>
<path d="M2260.8967,-405.3664C2264.9809,-396.8838 2269.7217,-387.0374 2274.1438,-377.8532" fill="none" stroke="#000000"/>
<polygon fill="#000000" points="2277.411,-379.1352 2278.5957,-368.6068 2271.104,-376.0985 2277.411,-379.1352" stroke="#000000"/>
</g>
<!-- 4926028712 -->
<g class="node" id="node17">
<title>4926028712</title>
<polygon fill="none" points="96.8999,-243.5 96.8999,-287.5 427.5796,-287.5 427.5796,-243.5 96.8999,-243.5" stroke="#000000"/>
<text fill="#000000" font-family="Times,serif" font-size="14.00" text-anchor="middle" x="182.0811" y="-261.3">Flatten_dynamic_3: Flatten</text>
<polyline fill="none" points="267.2622,-243.5 267.2622,-287.5 " stroke="#000000"/>
<text fill="#000000" font-family="Times,serif" font-size="14.00" text-anchor="middle" x="295.0967" y="-272.3">input:</text>
<polyline fill="none" points="267.2622,-265.5 322.9312,-265.5 " stroke="#000000"/>
<text fill="#000000" font-family="Times,serif" font-size="14.00" text-anchor="middle" x="295.0967" y="-250.3">output:</text>
<polyline fill="none" points="322.9312,-243.5 322.9312,-287.5 " stroke="#000000"/>
<text fill="#000000" font-family="Times,serif" font-size="14.00" text-anchor="middle" x="375.2554" y="-272.3">(None, 17, 100)</text>
<polyline fill="none" points="322.9312,-265.5 427.5796,-265.5 " stroke="#000000"/>
<text fill="#000000" font-family="Times,serif" font-size="14.00" text-anchor="middle" x="375.2554" y="-250.3">(None, 1700)</text>
</g>
<!-- 4926003128&#45;&gt;4926028712 -->
<g class="edge" id="edge15">
<title>4926003128-&gt;4926028712</title>
<path d="M220.0885,-324.3664C226.3543,-315.6159 233.6592,-305.4142 240.4109,-295.9851" fill="none" stroke="#000000"/>
<polygon fill="#000000" points="243.4339,-297.7751 246.4102,-287.6068 237.7425,-293.6997 243.4339,-297.7751" stroke="#000000"/>
</g>
<!-- 4926508392 -->
<g class="node" id="node18">
<title>4926508392</title>
<polygon fill="none" points="483.8999,-243.5 483.8999,-287.5 814.5796,-287.5 814.5796,-243.5 483.8999,-243.5" stroke="#000000"/>
<text fill="#000000" font-family="Times,serif" font-size="14.00" text-anchor="middle" x="569.0811" y="-261.3">Flatten_dynamic_4: Flatten</text>
<polyline fill="none" points="654.2622,-243.5 654.2622,-287.5 " stroke="#000000"/>
<text fill="#000000" font-family="Times,serif" font-size="14.00" text-anchor="middle" x="682.0967" y="-272.3">input:</text>
<polyline fill="none" points="654.2622,-265.5 709.9312,-265.5 " stroke="#000000"/>
<text fill="#000000" font-family="Times,serif" font-size="14.00" text-anchor="middle" x="682.0967" y="-250.3">output:</text>
<polyline fill="none" points="709.9312,-243.5 709.9312,-287.5 " stroke="#000000"/>
<text fill="#000000" font-family="Times,serif" font-size="14.00" text-anchor="middle" x="762.2554" y="-272.3">(None, 17, 100)</text>
<polyline fill="none" points="709.9312,-265.5 814.5796,-265.5 " stroke="#000000"/>
<text fill="#000000" font-family="Times,serif" font-size="14.00" text-anchor="middle" x="762.2554" y="-250.3">(None, 1700)</text>
</g>
<!-- 4926590480&#45;&gt;4926508392 -->
<g class="edge" id="edge16">
<title>4926590480-&gt;4926508392</title>
<path d="M635.4316,-324.3664C637.3794,-316.0624 639.6339,-306.4514 641.749,-297.4341" fill="none" stroke="#000000"/>
<polygon fill="#000000" points="645.1779,-298.1419 644.0542,-287.6068 638.3629,-296.5433 645.1779,-298.1419" stroke="#000000"/>
</g>
<!-- 4927593720 -->
<g class="node" id="node19">
<title>4927593720</title>
<polygon fill="none" points="852.8999,-243.5 852.8999,-287.5 1183.5796,-287.5 1183.5796,-243.5 852.8999,-243.5" stroke="#000000"/>
<text fill="#000000" font-family="Times,serif" font-size="14.00" text-anchor="middle" x="938.0811" y="-261.3">Flatten_dynamic_5: Flatten</text>
<polyline fill="none" points="1023.2622,-243.5 1023.2622,-287.5 " stroke="#000000"/>
<text fill="#000000" font-family="Times,serif" font-size="14.00" text-anchor="middle" x="1051.0967" y="-272.3">input:</text>
<polyline fill="none" points="1023.2622,-265.5 1078.9312,-265.5 " stroke="#000000"/>
<text fill="#000000" font-family="Times,serif" font-size="14.00" text-anchor="middle" x="1051.0967" y="-250.3">output:</text>
<polyline fill="none" points="1078.9312,-243.5 1078.9312,-287.5 " stroke="#000000"/>
<text fill="#000000" font-family="Times,serif" font-size="14.00" text-anchor="middle" x="1131.2554" y="-272.3">(None, 16, 100)</text>
<polyline fill="none" points="1078.9312,-265.5 1183.5796,-265.5 " stroke="#000000"/>
<text fill="#000000" font-family="Times,serif" font-size="14.00" text-anchor="middle" x="1131.2554" y="-250.3">(None, 1600)</text>
</g>
<!-- 4927723336&#45;&gt;4927593720 -->
<g class="edge" id="edge17">
<title>4927723336-&gt;4927593720</title>
<path d="M1045.8561,-324.3664C1041.8766,-315.8838 1037.2573,-306.0374 1032.9486,-296.8532" fill="none" stroke="#000000"/>
<polygon fill="#000000" points="1036.0268,-295.1736 1028.6109,-287.6068 1029.6895,-298.1466 1036.0268,-295.1736" stroke="#000000"/>
</g>
<!-- 4923547832 -->
<g class="node" id="node20">
<title>4923547832</title>
<polygon fill="none" points="1336.231,-243.5 1336.231,-287.5 1648.2485,-287.5 1648.2485,-243.5 1336.231,-243.5" stroke="#000000"/>
<text fill="#000000" font-family="Times,serif" font-size="14.00" text-anchor="middle" x="1412.0811" y="-261.3">Flatten_static_3: Flatten</text>
<polyline fill="none" points="1487.9312,-243.5 1487.9312,-287.5 " stroke="#000000"/>
<text fill="#000000" font-family="Times,serif" font-size="14.00" text-anchor="middle" x="1515.7656" y="-272.3">input:</text>
<polyline fill="none" points="1487.9312,-265.5 1543.6001,-265.5 " stroke="#000000"/>
<text fill="#000000" font-family="Times,serif" font-size="14.00" text-anchor="middle" x="1515.7656" y="-250.3">output:</text>
<polyline fill="none" points="1543.6001,-243.5 1543.6001,-287.5 " stroke="#000000"/>
<text fill="#000000" font-family="Times,serif" font-size="14.00" text-anchor="middle" x="1595.9243" y="-272.3">(None, 17, 100)</text>
<polyline fill="none" points="1543.6001,-265.5 1648.2485,-265.5 " stroke="#000000"/>
<text fill="#000000" font-family="Times,serif" font-size="14.00" text-anchor="middle" x="1595.9243" y="-250.3">(None, 1700)</text>
</g>
<!-- 4923549232&#45;&gt;4923547832 -->
<g class="edge" id="edge18">
<title>4923549232-&gt;4923547832</title>
<path d="M1478.4316,-324.3664C1480.3794,-316.0624 1482.6339,-306.4514 1484.749,-297.4341" fill="none" stroke="#000000"/>
<polygon fill="#000000" points="1488.1779,-298.1419 1487.0542,-287.6068 1481.3629,-296.5433 1488.1779,-298.1419" stroke="#000000"/>
</g>
<!-- 4923451936 -->
<g class="node" id="node21">
<title>4923451936</title>
<polygon fill="none" points="1705.231,-243.5 1705.231,-287.5 2017.2485,-287.5 2017.2485,-243.5 1705.231,-243.5" stroke="#000000"/>
<text fill="#000000" font-family="Times,serif" font-size="14.00" text-anchor="middle" x="1781.0811" y="-261.3">Flatten_static_4: Flatten</text>
<polyline fill="none" points="1856.9312,-243.5 1856.9312,-287.5 " stroke="#000000"/>
<text fill="#000000" font-family="Times,serif" font-size="14.00" text-anchor="middle" x="1884.7656" y="-272.3">input:</text>
<polyline fill="none" points="1856.9312,-265.5 1912.6001,-265.5 " stroke="#000000"/>
<text fill="#000000" font-family="Times,serif" font-size="14.00" text-anchor="middle" x="1884.7656" y="-250.3">output:</text>
<polyline fill="none" points="1912.6001,-243.5 1912.6001,-287.5 " stroke="#000000"/>
<text fill="#000000" font-family="Times,serif" font-size="14.00" text-anchor="middle" x="1964.9243" y="-272.3">(None, 17, 100)</text>
<polyline fill="none" points="1912.6001,-265.5 2017.2485,-265.5 " stroke="#000000"/>
<text fill="#000000" font-family="Times,serif" font-size="14.00" text-anchor="middle" x="1964.9243" y="-250.3">(None, 1700)</text>
</g>
<!-- 4923621272&#45;&gt;4923451936 -->
<g class="edge" id="edge19">
<title>4923621272-&gt;4923451936</title>
<path d="M1875.7747,-324.3664C1873.7243,-316.0624 1871.3512,-306.4514 1869.1247,-297.4341" fill="none" stroke="#000000"/>
<polygon fill="#000000" points="1872.4934,-296.4763 1866.6982,-287.6068 1865.6975,-298.1543 1872.4934,-296.4763" stroke="#000000"/>
</g>
<!-- 4925156208 -->
<g class="node" id="node22">
<title>4925156208</title>
<polygon fill="none" points="2093.231,-243.5 2093.231,-287.5 2405.2485,-287.5 2405.2485,-243.5 2093.231,-243.5" stroke="#000000"/>
<text fill="#000000" font-family="Times,serif" font-size="14.00" text-anchor="middle" x="2169.0811" y="-261.3">Flatten_static_5: Flatten</text>
<polyline fill="none" points="2244.9312,-243.5 2244.9312,-287.5 " stroke="#000000"/>
<text fill="#000000" font-family="Times,serif" font-size="14.00" text-anchor="middle" x="2272.7656" y="-272.3">input:</text>
<polyline fill="none" points="2244.9312,-265.5 2300.6001,-265.5 " stroke="#000000"/>
<text fill="#000000" font-family="Times,serif" font-size="14.00" text-anchor="middle" x="2272.7656" y="-250.3">output:</text>
<polyline fill="none" points="2300.6001,-243.5 2300.6001,-287.5 " stroke="#000000"/>
<text fill="#000000" font-family="Times,serif" font-size="14.00" text-anchor="middle" x="2352.9243" y="-272.3">(None, 16, 100)</text>
<polyline fill="none" points="2300.6001,-265.5 2405.2485,-265.5 " stroke="#000000"/>
<text fill="#000000" font-family="Times,serif" font-size="14.00" text-anchor="middle" x="2352.9243" y="-250.3">(None, 1600)</text>
</g>
<!-- 4925216920&#45;&gt;4925156208 -->
<g class="edge" id="edge20">
<title>4925216920-&gt;4925156208</title>
<path d="M2278.3096,-324.3664C2274.1206,-315.8838 2269.2582,-306.0374 2264.7228,-296.8532" fill="none" stroke="#000000"/>
<polygon fill="#000000" points="2267.7228,-295.0234 2260.1567,-287.6068 2261.4464,-298.1229 2267.7228,-295.0234" stroke="#000000"/>
</g>
<!-- 4925649752 -->
<g class="node" id="node23">
<title>4925649752</title>
<polygon fill="none" points="675.9512,-162.5 675.9512,-206.5 1174.5283,-206.5 1174.5283,-162.5 675.9512,-162.5" stroke="#000000"/>
<text fill="#000000" font-family="Times,serif" font-size="14.00" text-anchor="middle" x="765.7705" y="-180.3">concatenate_10: Concatenate</text>
<polyline fill="none" points="855.5898,-162.5 855.5898,-206.5 " stroke="#000000"/>
<text fill="#000000" font-family="Times,serif" font-size="14.00" text-anchor="middle" x="883.4243" y="-191.3">input:</text>
<polyline fill="none" points="855.5898,-184.5 911.2588,-184.5 " stroke="#000000"/>
<text fill="#000000" font-family="Times,serif" font-size="14.00" text-anchor="middle" x="883.4243" y="-169.3">output:</text>
<polyline fill="none" points="911.2588,-162.5 911.2588,-206.5 " stroke="#000000"/>
<text fill="#000000" font-family="Times,serif" font-size="14.00" text-anchor="middle" x="1042.8936" y="-191.3">[(None, 1700), (None, 1700), (None, 1600)]</text>
<polyline fill="none" points="911.2588,-184.5 1174.5283,-184.5 " stroke="#000000"/>
<text fill="#000000" font-family="Times,serif" font-size="14.00" text-anchor="middle" x="1042.583" y="-169.3">(None, 5000)</text>
</g>
<!-- 4926028712&#45;&gt;4925649752 -->
<g class="edge" id="edge21">
<title>4926028712-&gt;4925649752</title>
<path d="M427.8324,-245.2692C520.9974,-233.8871 637.7177,-219.6271 734.674,-207.7818" fill="none" stroke="#000000"/>
<polygon fill="#000000" points="735.3897,-211.2205 744.8914,-206.5335 734.5408,-204.2721 735.3897,-211.2205" stroke="#000000"/>
</g>
<!-- 4926508392&#45;&gt;4925649752 -->
<g class="edge" id="edge22">
<title>4926508392-&gt;4925649752</title>
<path d="M724.2934,-243.4734C760.1939,-232.9374 803.3278,-220.2785 840.4133,-209.3947" fill="none" stroke="#000000"/>
<polygon fill="#000000" points="841.5914,-212.6967 850.201,-206.5222 839.6201,-205.98 841.5914,-212.6967" stroke="#000000"/>
</g>
<!-- 4927593720&#45;&gt;4925649752 -->
<g class="edge" id="edge23">
<title>4927593720-&gt;4925649752</title>
<path d="M992.8271,-243.3664C982.1651,-234.0802 969.6266,-223.1595 958.2633,-213.2625" fill="none" stroke="#000000"/>
<polygon fill="#000000" points="960.4613,-210.5354 950.6217,-206.6068 955.8638,-215.814 960.4613,-210.5354" stroke="#000000"/>
</g>
<!-- 4789851472 -->
<g class="node" id="node24">
<title>4789851472</title>
<polygon fill="none" points="1357.4512,-162.5 1357.4512,-206.5 1849.0283,-206.5 1849.0283,-162.5 1357.4512,-162.5" stroke="#000000"/>
<text fill="#000000" font-family="Times,serif" font-size="14.00" text-anchor="middle" x="1443.7705" y="-180.3">concatenate_9: Concatenate</text>
<polyline fill="none" points="1530.0898,-162.5 1530.0898,-206.5 " stroke="#000000"/>
<text fill="#000000" font-family="Times,serif" font-size="14.00" text-anchor="middle" x="1557.9243" y="-191.3">input:</text>
<polyline fill="none" points="1530.0898,-184.5 1585.7588,-184.5 " stroke="#000000"/>
<text fill="#000000" font-family="Times,serif" font-size="14.00" text-anchor="middle" x="1557.9243" y="-169.3">output:</text>
<polyline fill="none" points="1585.7588,-162.5 1585.7588,-206.5 " stroke="#000000"/>
<text fill="#000000" font-family="Times,serif" font-size="14.00" text-anchor="middle" x="1717.3936" y="-191.3">[(None, 1700), (None, 1700), (None, 1600)]</text>
<polyline fill="none" points="1585.7588,-184.5 1849.0283,-184.5 " stroke="#000000"/>
<text fill="#000000" font-family="Times,serif" font-size="14.00" text-anchor="middle" x="1717.083" y="-169.3">(None, 5000)</text>
</g>
<!-- 4923547832&#45;&gt;4789851472 -->
<g class="edge" id="edge24">
<title>4923547832-&gt;4789851472</title>
<path d="M1522.571,-243.3664C1535.5413,-233.9016 1550.8383,-222.7389 1564.6054,-212.6926" fill="none" stroke="#000000"/>
<polygon fill="#000000" points="1566.9304,-215.3288 1572.9452,-206.6068 1562.8041,-209.6743 1566.9304,-215.3288" stroke="#000000"/>
</g>
<!-- 4923451936&#45;&gt;4789851472 -->
<g class="edge" id="edge25">
<title>4923451936-&gt;4789851472</title>
<path d="M1791.0809,-243.4734C1757.6645,-232.9822 1717.5439,-220.3862 1682.9769,-209.5337" fill="none" stroke="#000000"/>
<polygon fill="#000000" points="1683.9739,-206.1784 1673.3846,-206.5222 1681.8771,-212.857 1683.9739,-206.1784" stroke="#000000"/>
</g>
<!-- 4925156208&#45;&gt;4789851472 -->
<g class="edge" id="edge26">
<title>4925156208-&gt;4789851472</title>
<path d="M2092.8612,-245.8922C2001.3472,-234.4175 1885.2599,-219.8617 1789.0919,-207.8034" fill="none" stroke="#000000"/>
<polygon fill="#000000" points="1789.3165,-204.3043 1778.9588,-206.5329 1788.4456,-211.2499 1789.3165,-204.3043" stroke="#000000"/>
</g>
<!-- 4928204528 -->
<g class="node" id="node25">
<title>4928204528</title>
<polygon fill="none" points="973.0317,-81.5 973.0317,-125.5 1389.4478,-125.5 1389.4478,-81.5 973.0317,-81.5" stroke="#000000"/>
<text fill="#000000" font-family="Times,serif" font-size="14.00" text-anchor="middle" x="1062.5947" y="-99.3">concatenate_11: Concatenate</text>
<polyline fill="none" points="1152.1577,-81.5 1152.1577,-125.5 " stroke="#000000"/>
<text fill="#000000" font-family="Times,serif" font-size="14.00" text-anchor="middle" x="1179.9922" y="-110.3">input:</text>
<polyline fill="none" points="1152.1577,-103.5 1207.8267,-103.5 " stroke="#000000"/>
<text fill="#000000" font-family="Times,serif" font-size="14.00" text-anchor="middle" x="1179.9922" y="-88.3">output:</text>
<polyline fill="none" points="1207.8267,-81.5 1207.8267,-125.5 " stroke="#000000"/>
<text fill="#000000" font-family="Times,serif" font-size="14.00" text-anchor="middle" x="1298.6372" y="-110.3">[(None, 5000), (None, 5000)]</text>
<polyline fill="none" points="1207.8267,-103.5 1389.4478,-103.5 " stroke="#000000"/>
<text fill="#000000" font-family="Times,serif" font-size="14.00" text-anchor="middle" x="1298.1509" y="-88.3">(None, 10000)</text>
</g>
<!-- 4925649752&#45;&gt;4928204528 -->
<g class="edge" id="edge27">
<title>4925649752-&gt;4928204528</title>
<path d="M994.8547,-162.4734C1027.8703,-152.027 1067.4815,-139.4938 1101.6807,-128.673" fill="none" stroke="#000000"/>
<polygon fill="#000000" points="1103.1603,-131.8759 1111.6386,-125.5222 1101.0486,-125.202 1103.1603,-131.8759" stroke="#000000"/>
</g>
<!-- 4789851472&#45;&gt;4928204528 -->
<g class="edge" id="edge28">
<title>4789851472-&gt;4928204528</title>
<path d="M1488.4838,-162.4734C1431.9574,-151.6235 1363.7025,-138.5225 1305.8961,-127.4269" fill="none" stroke="#000000"/>
<polygon fill="#000000" points="1306.4534,-123.9701 1295.9728,-125.5222 1305.1338,-130.8446 1306.4534,-123.9701" stroke="#000000"/>
</g>
<!-- 4928204752 -->
<g class="node" id="node26">
<title>4928204752</title>
<polygon fill="none" points="1057.5034,-.5 1057.5034,-44.5 1304.9761,-44.5 1304.9761,-.5 1057.5034,-.5" stroke="#000000"/>
<text fill="#000000" font-family="Times,serif" font-size="14.00" text-anchor="middle" x="1104.5811" y="-18.3">output: Dense</text>
<polyline fill="none" points="1151.6587,-.5 1151.6587,-44.5 " stroke="#000000"/>
<text fill="#000000" font-family="Times,serif" font-size="14.00" text-anchor="middle" x="1179.4932" y="-29.3">input:</text>
<polyline fill="none" points="1151.6587,-22.5 1207.3276,-22.5 " stroke="#000000"/>
<text fill="#000000" font-family="Times,serif" font-size="14.00" text-anchor="middle" x="1179.4932" y="-7.3">output:</text>
<polyline fill="none" points="1207.3276,-.5 1207.3276,-44.5 " stroke="#000000"/>
<text fill="#000000" font-family="Times,serif" font-size="14.00" text-anchor="middle" x="1256.1519" y="-29.3">(None, 10000)</text>
<polyline fill="none" points="1207.3276,-22.5 1304.9761,-22.5 " stroke="#000000"/>
<text fill="#000000" font-family="Times,serif" font-size="14.00" text-anchor="middle" x="1256.1519" y="-7.3">(None, 6)</text>
</g>
<!-- 4928204528&#45;&gt;4928204752 -->
<g class="edge" id="edge29">
<title>4928204528-&gt;4928204752</title>
<path d="M1181.2397,-81.3664C1181.2397,-73.1516 1181.2397,-63.6579 1181.2397,-54.7252" fill="none" stroke="#000000"/>
<polygon fill="#000000" points="1184.7398,-54.6068 1181.2397,-44.6068 1177.7398,-54.6069 1184.7398,-54.6068" stroke="#000000"/>
</g>
</g>
</svg>